<?xml version="1.0" encoding="utf-8"?>
<!-- Generator: Adobe Illustrator 20.0.0, SVG Export Plug-In . SVG Version: 6.00 Build 0)  -->
<svg version="1.1" id="Layer_1" xmlns="http://www.w3.org/2000/svg" xmlns:xlink="http://www.w3.org/1999/xlink" x="0px" y="0px"
	 viewBox="0 0 2378 2500" style="enable-background:new 0 0 2378 2500;" xml:space="preserve">
<style type="text/css">
	.st0{fill:url(#SVGID_1_);}
	.st1{fill:none;stroke:#C8C8C8;stroke-width:0.5;}
	.st2{fill:url(#SVGID_2_);}
	.st3{fill:none;stroke:#C8C8C8;stroke-width:6.005;}
	.st4{fill:#F91D0A;}
	.st5{fill:#1A171B;}
	.st6{fill:url(#SVGID_3_);}
	.st7{fill:url(#SVGID_4_);}
	.st8{fill:#FFF9F9;}
</style>
<image style="overflow:visible;opacity:0.75;enable-background:new    ;" width="490" height="641" xlink:href="7E6D2797.png"  transform="matrix(3.8575 0 0 3.8575 299.8667 -126.5493)">
</image>
<linearGradient id="SVGID_1_" gradientUnits="userSpaceOnUse" x1="-878.1318" y1="604.2902" x2="-708.6859" y2="911.3152" gradientTransform="matrix(3.8575 0 0 -3.8575 4262.3242 4082.6262)">
	<stop  offset="0" style="stop-color:#FFFFFF"/>
	<stop  offset="1" style="stop-color:#E1E1E1"/>
</linearGradient>
<path class="st0" d="M358.9-92.2h1073.7c238.3,169.3,510.5,422.2,696.8,697.9v1651.8H358.9V-92.2L358.9-92.2z"/>
<path class="st1" d="M358.9-92.2h1073.7c238.3,169.3,510.5,422.2,696.8,697.9v1651.8H358.9V-92.2L358.9-92.2z"/>
<image style="overflow:visible;opacity:0.75;enable-background:new    ;" width="213" height="212" xlink:href="7E6D2795.png"  transform="matrix(3.8394 0 0 3.8575 1372.2412 -153.5518)">
</image>
<linearGradient id="SVGID_2_" gradientUnits="userSpaceOnUse" x1="-663.1009" y1="971.184" x2="-636.9819" y2="995.26" gradientTransform="matrix(3.8575 0 0 -3.8575 4258.5635 4077.1023)">
	<stop  offset="0" style="stop-color:#FFFFFF"/>
	<stop  offset="1" style="stop-color:#C8C8C8"/>
</linearGradient>
<path class="st2" d="M1432.6-92.2c259.3,188.7,506.1,421.1,696.8,697.9c-123.5-128.2-292.8-196.7-493.7-187.9
	C1659.4,180,1567.7,26.4,1432.6-92.2L1432.6-92.2z"/>
<path class="st1" d="M1432.6-92.2c259.3,188.7,506.1,421.1,696.8,697.9c-123.5-128.2-292.8-196.7-493.7-187.9
	C1659.4,180,1567.7,26.4,1432.6-92.2L1432.6-92.2z"/>
<path class="st3" d="M-132.4,72.8h1598.3V610H-132.4V72.8z"/>
<g>
	<path class="st4" d="M984.3,1453.1c43.2-84.6,92.2-179.9,131.5-275.6l15.5-37.8c-51.3-195.1-82-351.8-54.6-453
		c7.4-26.4,38-42.4,70.7-42.4l19.9,0.3h3.7c44.8-0.7,65.8,56.3,68.2,78.4c3.9,36.9-13.1,99.3-13.1,99.3c0-25.2,1-65.9-14.9-101
		c-18.5-40.7-36.2-64.9-52-68.8c-8,5.4-15.8,16.4-18.4,37.7c-5.5,29.9-7.2,67.6-7.2,87c0,68.6,13.5,159.3,40.1,252.7
		c5-14.5,9.4-28.4,12.9-41.4c5.4-20.5,40.1-156.5,40.1-156.5s-8.7,181.1-20.9,235.8c-2.6,11.6-5.5,23-8.5,34.7
		c43.8,122.4,114.4,231.6,198.6,310.2c33.2,31,75.1,56,114.8,78.8c86.7-12.4,166.4-18.2,233-17.5c88.3,1.2,153.1,14.2,179.4,40.1
		c12.9,12.6,18.1,27.7,19.7,44.8c0.4,6.6-2.8,22.2-3.8,26.1c0.9-4.7,0.9-28-69.9-50.6c-55.8-17.8-160.3-17.3-285.7-3.9
		c145,71,286.3,106.2,331.1,85.1c10.9-5.3,24.2-23.5,24.2-23.5s-7.9,35.9-13.6,44.8c-7.2,9.7-21.4,20.3-34.9,23.8
		c-70.7,18.9-254.8-24.8-415.3-116.5c-179.3,26.4-376.2,75.2-534,127c-155.1,271.8-271.7,396.6-366.6,349.1l-34.9-17.5
		c-14.2-8.1-16.3-27.8-13.1-43.9c11.1-54.1,78.9-135.6,215.2-217c14.7-8.9,80-43.4,80-43.4s-48.4,46.8-59.7,56
		c-108.8,89.1-189.1,201.3-187.1,244.8l0.4,3.8C667.6,1989.8,806.1,1801.7,984.3,1453.1 M1040.8,1482c-29.8,56-58.8,108-85.7,155.7
		c148.5-62.2,308.4-102.1,460.6-130.3c-20.5-14.1-40.3-29.1-59-44.9c-83.8-71-147.7-159.5-194-252.6
		C1133.3,1289,1098.4,1373.1,1040.8,1482"/>
</g>
<path class="st4" d="M1975.2,1697.4h5.7c6.4,0,11.8-1.9,11.8-7.4c0-4.4-2.8-7.4-10.9-7.4c-3.3,0-5.2,0.3-6.6,0.6V1697.4
	L1975.2,1697.4z M1975.2,1723.1h-8.5v-45.8c5.3-0.9,10.6-1.3,15.9-1.3c7.7,0,11.5,1.3,14.5,3.5c2.8,1.9,4.7,5.5,4.7,9.6
	c0,5.8-4.1,9.3-9,11v0.5c4.1,1.6,6.4,5.2,7.7,11c1.3,7.1,2.1,9.9,3.3,11.5h-8.8c-1.4-1.6-2.5-5.7-3.6-12c-1.1-5-4-7.1-10.6-7.1h-5.5
	V1723.1L1975.2,1723.1z M1984,1743.1c-24.2,0-43.9-19.6-43.9-43.8c0-24.2,19.6-43.9,43.9-43.9c24.2,0,43.9,19.6,43.9,43.9
	C2027.9,1723.5,2008.2,1743.1,1984,1743.1z M2019.1,1699.3c0-19.4-15.7-35.1-35.1-35.1c-19.4,0.3-34.9,16.2-34.6,35.6
	c0.3,19,15.6,34.3,34.6,34.6C2003.4,1734.4,2019.1,1718.7,2019.1,1699.3z"/>
<g>
	<path class="st5" d="M1184.5,2036l-11.9-76.8c-3.4-22.1-7.7-56.6-11.1-80.6h-1.3c-3.5,24.1-8.3,59.7-11.9,80.8l-12.8,76.6H1184.5z
		 M1129.1,2086l-15.5,85.1h-57.2l71.3-354.2h70.2l64.7,354.2h-57.4L1190,2086L1129.1,2086L1129.1,2086z M1392.7,2012.9
		c0-4.8,0-10.3-0.9-15.3c-2.3-17.5-10.9-33.3-24.6-33.3c-23.6,0-32.3,37-32.3,80.3c0,49.7,12.4,78,31.5,78c8.8,0,18.7-4.9,24.2-25.7
		c1.3-4.2,2.1-9.7,2.1-16.2L1392.7,2012.9L1392.7,2012.9z M1451.4,1807.5v290.1c0,23.1,1.1,51.4,2,73.5h-50.7l-3.3-29.6h-1.3
		c-8.4,18.2-27,33.7-49.1,33.7c-48.6,0-72.6-58.3-72.6-131.8c0-89.6,35.9-133.3,75.1-133.3c20.4,0,33.6,10.9,40.3,26.7h1v-129.4
		L1451.4,1807.5L1451.4,1807.5z M1573.5,2126.3c22.5,0,27.9-45.9,27.9-83.9c0-36.2-5.5-83.2-28.9-83.2c-24.8,0-30,47-30,83.2
		c0,43.6,6.6,83.9,30.5,83.9H1573.5z M1572.5,2175.3c-54.1,0-88-47.3-88-131.8c0-92.3,43.5-133.3,89.3-133.3
		c53.3,0,86.8,49.6,86.8,131.8c0,105.7-52.4,133.3-87.7,133.3L1572.5,2175.3z M1752,2079.5c0,6.3,1,12.3,2.3,16.4
		c5.9,21.5,15.9,26.8,23.9,26.8c22.6,0,31.8-31.3,31.8-81.3c0-45.6-9.7-77-32.1-77c-11.2,0-20.5,13.2-23.7,27.3
		c-1.2,4.4-2.2,11.4-2.2,16.1L1752,2079.5L1752,2079.5z M1693.4,1807.5h58.6v133.7h0.9c11.6-19.7,27-31.1,49.2-31.1
		c44.3,0,66.5,54.8,66.5,126.3c0,90.5-33.1,138.8-76,138.8c-20.5,0-34.1-9.9-46.4-34.9h-1.2l-3.3,30.8h-50.3c0.8-21.3,2-50.4,2-73.5
		L1693.4,1807.5L1693.4,1807.5L1693.4,1807.5z M2009.3,2018.3c0.2-36.1-9.5-61.2-28-61.2c-21.2,0-30.3,33.8-30.9,61.2H2009.3z
		 M1950.2,2063.4c0.7,46.4,23.1,61.6,51,61.6c17.6,0,32.8-4.3,44-8.9l7.8,45.9c-15.5,7.3-39.5,11.9-62.6,11.9
		c-62.9,0-97.3-46.8-97.3-126.7c0-85.8,39.9-137.3,92-137.3c50.3,0,78.2,45.6,78.2,119.9c0,17-0.7,26.6-1.7,34L1950.2,2063.4
		L1950.2,2063.4z"/>
</g>
<g>
	
		<image style="overflow:visible;opacity:0.3;enable-background:new    ;" width="445" height="171" xlink:href="7E6D279B.png"  transform="matrix(3.849 0 0 3.8351 -187.963 25.9643)">
	</image>
	
		<linearGradient id="SVGID_3_" gradientUnits="userSpaceOnUse" x1="-1501.6245" y1="506.2578" x2="-1582.1182" y2="258.5222" gradientTransform="matrix(3.8575 0 0 3.8575 6613.8076 -1131.5354)">
		<stop  offset="0.127" style="stop-color:#8A0000"/>
		<stop  offset="0.244" style="stop-color:#900000;stop-opacity:0.999"/>
		<stop  offset="0.398" style="stop-color:#A00000;stop-opacity:0.999"/>
		<stop  offset="0.573" style="stop-color:#BC0000;stop-opacity:0.998"/>
		<stop  offset="0.761" style="stop-color:#E20000;stop-opacity:0.997"/>
		<stop  offset="0.867" style="stop-color:#FA0000;stop-opacity:0.996"/>
	</linearGradient>
	<path class="st6" d="M-133.1,74.9h1598.3v537.2H-133.1V74.9z"/>
	
		<linearGradient id="SVGID_4_" gradientUnits="userSpaceOnUse" x1="-1498.2247" y1="516.0782" x2="-1585.101" y2="248.7008" gradientTransform="matrix(3.8575 0 0 3.8575 6613.8076 -1131.5354)">
		<stop  offset="0.315" style="stop-color:#5E0000"/>
		<stop  offset="0.444" style="stop-color:#830000;stop-opacity:0.999"/>
		<stop  offset="0.618" style="stop-color:#AE0000;stop-opacity:0.998"/>
		<stop  offset="0.775" style="stop-color:#CD0000;stop-opacity:0.997"/>
		<stop  offset="0.908" style="stop-color:#E00000;stop-opacity:0.996"/>
		<stop  offset="1" style="stop-color:#E70000;stop-opacity:0.996"/>
	</linearGradient>
	<path class="st7" d="M1495.7,644.4H-162V42.7h1657.7V644.4z M1436.1,102.3H-102.4v482.3h1538.5V102.3z"/>
	<path class="st8" d="M284.6,153.8h116.3c34.6,0,61.1,10.2,79.5,30.6c18.6,20.3,27.9,49.2,27.9,86.8c0,37.8-9.3,66.8-27.9,87.3
		c-18.4,20.3-45,30.4-79.5,30.4h-46.2v124.9h-70.1V153.8 M354.7,221v100.5h38.8c13.6,0,24.1-4.3,31.5-13
		c7.4-8.8,11.1-21.3,11.1-37.4s-3.7-28.4-11.1-37.1c-7.4-8.7-17.9-13-31.5-13L354.7,221 M627.7,223.9v219.6h25.1
		c28.6,0,50.5-9.4,65.5-28.2c15.2-18.8,22.8-46.1,22.8-81.9c0-35.7-7.5-62.8-22.6-81.5c-15-18.6-36.9-28-65.7-28H627.7 M557.7,153.8
		h73.9c41.3,0,72,3.9,92.1,11.8c20.3,7.7,37.6,20.9,52.1,39.5c12.7,16.2,22.2,34.9,28.4,56.2c6.2,21.2,9.3,45.2,9.3,72.1
		c0,27.2-3.1,51.4-9.3,72.8c-6.2,21.2-15.6,39.9-28.4,56.2c-14.6,18.6-32,31.9-52.4,39.8c-20.4,7.7-51,11.6-91.7,11.6h-73.9V153.8
		 M867.1,153.8h189.1v70.1h-119v67h111.9V361H937.1v152.6h-70.1V153.8"/>
</g>
</svg>
